<svg version="1.1" width="64" height="64" viewBox="0 0 64 64" xmlns="http://www.w3.org/2000/svg"><rect width="100%" height="100%" fill="#222"></rect><circle cx="4" cy="4" r="3" fill="#444"></circle><circle cx="12" cy="4" r="3" fill="#444"></circle><circle cx="20" cy="4" r="3" fill="#444"></circle><circle cx="28" cy="4" r="3" fill="#444"></circle><circle cx="36" cy="4" r="3" fill="#fbb601"></circle><circle cx="44" cy="4" r="3" fill="#444"></circle><circle cx="52" cy="4" r="3" fill="#444"></circle><circle cx="60" cy="4" r="3" fill="#444"></circle><circle cx="4" cy="12" r="3" fill="#444"></circle><circle cx="12" cy="12" r="3" fill="#444"></circle><circle cx="20" cy="12" r="3" fill="#444"></circle><circle cx="28" cy="12" r="3" fill="#fbb601"></circle><circle cx="36" cy="12" r="3" fill="#fbb601"></circle><circle cx="44" cy="12" r="3" fill="#fbb601"></circle><circle cx="52" cy="12" r="3" fill="#444"></circle><circle cx="60" cy="12" r="3" fill="#444"></circle><circle cx="4" cy="20" r="3" fill="#444"></circle><circle cx="12" cy="20" r="3" fill="#444"></circle><circle cx="20" cy="20" r="3" fill="#fbb601"></circle><circle cx="28" cy="20" r="3" fill="#fbb601"></circle><circle cx="36" cy="20" r="3" fill="#fbb601"></circle><circle cx="44" cy="20" r="3" fill="#fbb601"></circle><circle cx="52" cy="20" r="3" fill="#444"></circle><circle cx="60" cy="20" r="3" fill="#444"></circle><circle cx="4" cy="28" r="3" fill="#444"></circle><circle cx="12" cy="28" r="3" fill="#444"></circle><circle cx="20" cy="28" r="3" fill="#fbb601"></circle><circle cx="28" cy="28" r="3" fill="#fbb601"></circle><circle cx="36" cy="28" r="3" fill="#fbb601"></circle><circle cx="44" cy="28" r="3" fill="#fbb601"></circle><circle cx="52" cy="28" r="3" fill="#444"></circle><circle cx="60" cy="28" r="3" fill="#444"></circle><circle cx="4" cy="36" r="3" fill="#444"></circle><circle cx="12" cy="36" r="3" fill="#fbb601"></circle><circle cx="20" cy="36" r="3" fill="#fbb601"></circle><circle cx="28" cy="36" r="3" fill="#fbb601"></circle><circle cx="36" cy="36" r="3" fill="#fbb601"></circle><circle cx="44" cy="36" r="3" fill="#fbb601"></circle><circle cx="52" cy="36" r="3" fill="#fbb601"></circle><circle cx="60" cy="36" r="3" fill="#444"></circle><circle cx="4" cy="44" r="3" fill="#444"></circle><circle cx="12" cy="44" r="3" fill="#fbb601"></circle><circle cx="20" cy="44" r="3" fill="#fbb601"></circle><circle cx="28" cy="44" r="3" fill="#fbb601"></circle><circle cx="36" cy="44" r="3" fill="#fbb601"></circle><circle cx="44" cy="44" r="3" fill="#fbb601"></circle><circle cx="52" cy="44" r="3" fill="#fbb601"></circle><circle cx="60" cy="44" r="3" fill="#444"></circle><circle cx="4" cy="52" r="3" fill="#fbb601"></circle><circle cx="12" cy="52" r="3" fill="#fbb601"></circle><circle cx="20" cy="52" r="3" fill="#fbb601"></circle><circle cx="28" cy="52" r="3" fill="#fbb601"></circle><circle cx="36" cy="52" r="3" fill="#fbb601"></circle><circle cx="44" cy="52" r="3" fill="#fbb601"></circle><circle cx="52" cy="52" r="3" fill="#fbb601"></circle><circle cx="60" cy="52" r="3" fill="#fbb601"></circle><circle cx="4" cy="60" r="3" fill="#fbb601"></circle><circle cx="12" cy="60" r="3" fill="#fbb601"></circle><circle cx="20" cy="60" r="3" fill="#fbb601"></circle><circle cx="28" cy="60" r="3" fill="#fbb601"></circle><circle cx="36" cy="60" r="3" fill="#fbb601"></circle><circle cx="44" cy="60" r="3" fill="#fbb601"></circle><circle cx="52" cy="60" r="3" fill="#fbb601"></circle><circle cx="60" cy="60" r="3" fill="#fbb601"></circle></svg>
